<svg id="Chopsticks" xmlns="http://www.w3.org/2000/svg" viewBox="0 0 60.66 10.33"><defs><style>.cls-1{fill:#d1b771;}.cls-2{fill:#ec292e;}</style></defs><title>chopsticks</title><path class="cls-1" d="M14.18,13.26s-1.24,1.77,0,2.3S73.41,9.37,73.41,9.37,75.27,7.61,72.26,8,14.18,13.26,14.18,13.26Z" transform="translate(-13.4 -5.25)"/><path class="cls-2" d="M20.9,12.65a2.71,2.71,0,0,0,0,2.45l7.59-.75a2.35,2.35,0,0,1,0-2.38Z" transform="translate(-13.4 -5.25)"/><path class="cls-1" d="M14.06,6.27s-1.36,1.67-.17,2.29S73.42,6.75,73.42,6.75s2-1.62-1-1.49S14.06,6.27,14.06,6.27Z" transform="translate(-13.4 -5.25)"/><path class="cls-2" d="M20.81,6.16a2.71,2.71,0,0,0-.18,2.45l7.62-.19A2.35,2.35,0,0,1,28.43,6Z" transform="translate(-13.4 -5.25)"/></svg>