<svg id="Sushi3" xmlns="http://www.w3.org/2000/svg" viewBox="0 0 238 124.4"><defs><style>.cls-1{fill:#ebebeb;}.cls-2{fill:#f0c6bc;}.cls-3{fill:#e95124;}</style></defs><title>Sushi3</title><path class="cls-1" d="M3.26,105.85S-12.24,44.8,90.8,24c106.69-9.68,118.05,57.81,118.05,57.81s10.44,32.87-39.28,38.76S12.46,128.32,3.26,105.85Z"/><path class="cls-2" d="M157.53,60.81S82.74,52.14,62.14,58.1s-45.52,25-45.52,25-37.4-6.59,0-45.61,86.17-54.74,162.59-11.92Z"/><path class="cls-3" d="M179,25.5,155.7,60.35s19,10.76,23.3,22.17,39.56,70.7,44.44,24.52c2.71-2.28,23.85,6.27,9.76-26.23S195.8,24.93,179,25.5Z"/></svg>